# File created by Blade
# Date/Time:  Fri Jan 16 19:49:56 2015
# Frame Rate: 120.000 fps
#------------------------------------------------------
:FULLY-SPECIFIED
:DEGREES
743
root 19.504999 35.461274 -20.225894 -168.129599 3.419263 -179.344897
Spine -8.264688 3.607006 -0.611378
Head 1.482683 1.670697 2.577315
LeftShoulder -11.532952 -19.989476 -3.393066
LeftArm -26.931177 22.781542 -76.135149
LeftForeArm 15.267861 0.000000 -0.703388
LeftHand -1.908736 0.000000 -17.878048
LeftHandThumb1 -26.253704 0.000000 33.147579
RightShoulder -10.544047 -14.923747 10.240103
RightArm 9.181782 -21.866715 63.102575
RightForeArm -28.855559 0.000000 10.239679
RightHand 2.842304 -0.000000 12.554037
RightHandThumb1 -24.326973 -0.000000 -32.862282
LeftUpLeg -3.871561 7.800027 2.927154
LeftLeg -6.746449 -0.000000 0.000000
LeftFoot -17.753858 29.146470 -11.325991
LeftToeBase 26.797925 -0.000000 -0.000000
RightUpLeg -6.083055 -0.306354 -4.694888
RightLeg -2.909336 -0.000000 0.000000
RightFoot -18.714745 -17.520330 15.776922
RightToeBase 25.614314 -0.000000 -0.000000
744
root 19.527823 35.443494 -20.239296 -168.381848 3.399576 -179.669856
Spine -8.819131 3.378822 -1.052451
Head 2.017171 1.660436 2.900559
LeftShoulder -11.157912 -20.646184 -3.594294
LeftArm -25.981385 24.077488 -75.045657
LeftForeArm 15.597099 -0.000000 -0.731819
LeftHand -1.889039 0.000000 -17.178869
LeftHandThumb1 -26.253704 0.000000 33.147579
RightShoulder -10.244370 -14.392212 10.430375
RightArm 10.180873 -20.949576 62.247591
RightForeArm -29.333716 -0.000000 10.076453
RightHand 2.557099 -0.000000 12.011488
RightHandThumb1 -24.326973 -0.000000 -32.862282
LeftUpLeg -3.638459 7.805657 2.662088
LeftLeg -6.727408 -0.000000 0.000000
LeftFoot -17.662877 29.157109 -11.299042
LeftToeBase 26.686661 -0.000000 -0.000000
RightUpLeg -5.850294 -0.292459 -4.980818
RightLeg -2.807664 -0.000000 0.000000
RightFoot -19.192055 -17.644964 15.482674
RightToeBase 25.908617 -0.000000 -0.000000
745
root 19.546492 35.429070 -20.237147 -168.577810 3.417422 -179.971334
Spine -9.399646 3.220943 -1.463083
Head 2.540942 1.577442 3.148560
LeftShoulder -10.776522 -21.246163 -3.786634
LeftArm -24.869734 25.154947 -73.805594
LeftForeArm 15.765892 -0.000000 -0.712423
LeftHand -2.046554 0.000000 -16.657540
LeftHandThumb1 -26.253704 0.000000 33.147579
RightShoulder -9.953123 -13.934419 10.589767
RightArm 11.238250 -20.122695 61.366932
RightForeArm -29.395956 0.000000 10.062246
RightHand 2.417111 -0.000000 11.903616
RightHandThumb1 -24.326973 -0.000000 -32.862282
LeftUpLeg -3.484767 7.783541 2.402517
LeftLeg -6.695222 -0.000000 0.000000
LeftFoot -17.598225 29.196214 -11.323830
LeftToeBase 26.673981 -0.000000 -0.000000
RightUpLeg -5.709484 -0.210662 -5.257766
RightLeg -2.698666 -0.000000 0.000000
RightFoot -19.559482 -17.865881 14.906325
RightToeBase 26.252851 -0.000000 -0.000000
746
root 19.584663 35.420186 -20.245471 -168.911870 3.218602 -180.073561
Spine -9.771291 2.843122 -1.544204
Head 3.016969 1.644332 3.255794
LeftShoulder -10.531101 -21.903668 -4.020611
LeftArm -23.799276 26.474991 -72.606801
LeftForeArm 15.487604 0.000000 -0.624100
LeftHand -2.165069 -0.000000 -15.873229
LeftHandThumb1 -26.253704 0.000000 33.147579
RightShoulder -9.647078 -13.365005 10.660406
RightArm 12.243413 -19.150679 60.580150
RightForeArm -29.809220 -0.000000 10.096377
RightHand 2.193303 -0.000000 11.601477
RightHandThumb1 -24.326973 -0.000000 -32.862282
LeftUpLeg -3.193826 7.574083 2.440491
LeftLeg -6.659886 -0.000000 0.000000
LeftFoot -17.540056 29.259509 -11.246877
LeftToeBase 26.665939 -0.000000 -0.000000
RightUpLeg -5.304486 0.271171 -5.325682
RightLeg -2.681758 -0.000000 0.000000
RightFoot -19.930942 -18.604674 14.693386
RightToeBase 26.339556 -0.000000 -0.000000
